<svg width="30" height="24" viewBox="0 0 30 24" fill="none" xmlns="http://www.w3.org/2000/svg">
<g id="login">
<rect width="1280" height="832" transform="translate(-741 -280)" fill="#F4F4F4"/>
<g id="login_2">
<g id="Rectangle 15" filter="url(#filter0_d_0_1)">
<rect x="-86" y="-172" width="560" height="650" rx="30" fill="white"/>
</g>
<g id="Frame 6">
<rect x="-16" y="-20" width="420" height="64" rx="10" fill="#ECECEC"/>
<path id="Vector" d="M27 0H3C1.35 0 0.015 1.35 0.015 3L0 21C0 22.65 1.35 24 3 24H27C28.65 24 30 22.65 30 21V3C30 1.35 28.65 0 27 0ZM27 6L15 13.5L3 6V3L15 10.5L27 3V6Z" fill="black"/>
</g>
</g>
</g>
<defs>
<filter id="filter0_d_0_1" x="-96" y="-172" width="580" height="670" filterUnits="userSpaceOnUse" color-interpolation-filters="sRGB">
<feFlood flood-opacity="0" result="BackgroundImageFix"/>
<feColorMatrix in="SourceAlpha" type="matrix" values="0 0 0 0 0 0 0 0 0 0 0 0 0 0 0 0 0 0 127 0" result="hardAlpha"/>
<feOffset dy="10"/>
<feGaussianBlur stdDeviation="5"/>
<feComposite in2="hardAlpha" operator="out"/>
<feColorMatrix type="matrix" values="0 0 0 0 0 0 0 0 0 0 0 0 0 0 0 0 0 0 0.25 0"/>
<feBlend mode="normal" in2="BackgroundImageFix" result="effect1_dropShadow_0_1"/>
<feBlend mode="normal" in="SourceGraphic" in2="effect1_dropShadow_0_1" result="shape"/>
</filter>
</defs>
</svg>
